<?xml version="1.0" encoding="UTF-8"?>
<svg version="1.1" xmlns="http://www.w3.org/2000/svg" width="512" height="512">
<path d="M0 0 C1.06160339 -0.01283524 2.12320679 -0.02567047 3.21697998 -0.03889465 C4.36901917 -0.04628159 5.52105835 -0.05366852 6.70800781 -0.0612793 C7.8895343 -0.06935104 9.07106079 -0.07742279 10.28839111 -0.08573914 C12.79348275 -0.09958975 15.29859333 -0.11030751 17.80371094 -0.11816406 C21.63155002 -0.13536511 25.45852305 -0.17924291 29.28613281 -0.22338867 C31.71841812 -0.23351635 34.15071078 -0.24203222 36.58300781 -0.2487793 C37.72695007 -0.26628738 38.87089233 -0.28379547 40.04949951 -0.30183411 C46.32779586 -0.28473545 50.16327943 -0.08210182 54.91113281 4.17700195 C59.0031661 8.60082172 60.00037285 11.85835236 60.11645508 17.76196289 C60.1364003 18.6625946 60.15634552 19.56322632 60.17689514 20.4911499 C60.20196388 21.93666229 60.20196388 21.93666229 60.22753906 23.41137695 C60.24832016 24.40453918 60.26910126 25.39770142 60.29051208 26.42095947 C60.3558303 29.58957077 60.4148102 32.75826406 60.47363281 35.92700195 C60.51683488 38.07674997 60.56044972 40.22648974 60.60449219 42.3762207 C60.71149353 47.64306144 60.81329272 52.9099835 60.91113281 58.17700195 C62.81903313 59.07095525 64.73787087 59.9415953 66.66113281 60.80200195 C67.72847656 61.28926758 68.79582031 61.7765332 69.89550781 62.27856445 C72.72763982 63.39304074 72.72763982 63.39304074 74.90771484 62.71386719 C77.94540529 60.38358918 80.55808223 57.71142726 83.21582031 54.9621582 C84.4513752 53.70617861 85.68705623 52.45032309 86.92285156 51.19458008 C88.85629541 49.21769633 90.7871961 47.23840893 92.71533203 45.25634766 C94.58395727 43.33925181 96.46185215 41.43161006 98.34082031 39.5246582 C98.9097702 38.93395035 99.47872009 38.34324249 100.06491089 37.7346344 C104.07078848 33.67984171 107.88412732 30.64890871 113.69238281 29.7434082 C114.58957031 29.74211914 115.48675781 29.74083008 116.41113281 29.73950195 C117.75691406 29.71049805 117.75691406 29.71049805 119.12988281 29.6809082 C125.83495175 30.87689662 130.72741148 36.64713607 135.39160156 41.2512207 C136.08627029 41.93448929 136.78093903 42.61775787 137.49665833 43.32173157 C138.95750242 44.76375985 140.41551881 46.20865775 141.87084961 47.65625 C144.08838964 49.85434858 146.32635031 52.03017435 148.56542969 54.20629883 C149.9879698 55.61577901 151.40923704 57.02654526 152.82910156 58.4387207 C153.49475632 59.07968185 154.16041107 59.72064301 154.84623718 60.38102722 C159.21299647 64.78998802 162.07950302 68.91961059 162.91113281 75.17700195 C162.85416699 82.06175785 160.60993146 86.38910766 155.80563354 91.18887329 C155.11599518 91.83722137 154.42635681 92.48556946 153.71582031 93.15356445 C152.654655 94.1977504 152.654655 94.1977504 151.572052 95.26303101 C149.32828677 97.46233765 147.05825415 99.63204175 144.78613281 101.80200195 C143.25175065 103.29621873 141.719178 104.79229605 140.18847656 106.2902832 C136.44994517 109.94103989 132.68760553 113.56552384 128.91113281 117.17700195 C130.89113281 122.12700195 132.87113281 127.07700195 134.91113281 132.17700195 C141.47238758 132.25194161 148.03338555 132.30597254 154.5949707 132.34179688 C156.82060087 132.35675342 159.04620224 132.37712602 161.27172852 132.40332031 C172.72736814 132.53463918 183.70045391 132.65088822 194.86572266 129.86328125 C209.80710765 126.49625919 226.98402634 131.01302416 239.78613281 138.9621582 C248.15357817 144.8077485 258.03195745 152.37599366 261.91113281 162.17700195 C262.6740246 166.58399822 262.41316705 169.99722151 260.66113281 174.11450195 C258.34306078 176.84651542 256.30671299 178.02369472 252.72174072 178.41751099 C251.53593414 178.41084915 251.53593414 178.41084915 250.32617188 178.40405273 C249.42554016 178.40390167 248.52490845 178.40375061 247.59698486 178.40359497 C246.15147247 178.38811111 246.15147247 178.38811111 244.67675781 178.37231445 C243.68359558 178.36948456 242.69043335 178.36665466 241.66717529 178.36373901 C238.49837137 178.35255339 235.32985116 178.32745158 232.16113281 178.30200195 C230.01139731 178.29197007 227.86165738 178.28284458 225.71191406 178.2746582 C220.44489035 178.25261936 215.17803185 178.21915779 209.91113281 178.17700195 C209.61295654 179.1127002 209.31478027 180.04839844 209.00756836 181.01245117 C207.60428608 185.06262817 205.41700321 188.25951063 203.05566406 191.80981445 C201.74838368 194.02816285 201.74838368 194.02816285 202.01269531 196.09887695 C203.26332614 198.99164044 204.83662571 201.61003472 206.47363281 204.30200195 C209.91113281 209.95969813 209.91113281 209.95969813 209.91113281 212.17700195 C211.18230957 212.1612915 212.45348633 212.14558105 213.76318359 212.12939453 C218.49309925 212.07496945 223.22298737 212.04060603 227.953125 212.01220703 C229.99776875 211.99714908 232.04238036 211.97669839 234.08691406 211.95068359 C237.03100533 211.91416884 239.97466839 211.89724545 242.91894531 211.8840332 C243.82855011 211.86854935 244.73815491 211.85306549 245.67532349 211.83711243 C250.85897926 211.83574733 254.41959882 212.28908389 258.91113281 215.17700195 C261.49216132 217.86833083 262.43830582 219.96321868 262.66113281 223.67700195 C262.36335126 232.8676236 254.53753429 239.82216026 248.34863281 245.92700195 C244.1989435 249.48203174 239.81800577 252.08436196 234.97363281 254.55200195 C234.34191162 254.87394531 233.71019043 255.19588867 233.05932617 255.52758789 C223.78987942 259.97015271 214.71251547 261.70358703 204.47363281 261.55200195 C203.46300781 261.54040039 202.45238281 261.52879883 201.41113281 261.5168457 C183.36043051 261.12089481 168.44912772 254.1919858 155.91113281 241.17700195 C152.29981338 237.37029397 149.20569353 233.91137202 146.91113281 229.17700195 C145.12497559 229.17083862 145.12497559 229.17083862 143.30273438 229.16455078 C138.88172205 229.14276725 134.46160073 229.08848601 130.04101562 229.02441406 C128.12834212 229.00122719 126.21554082 228.98683672 124.30273438 228.98144531 C121.55159807 228.97216058 118.80247369 228.93118268 116.05175781 228.8840332 C115.19745178 228.88796585 114.34314575 228.8918985 113.46295166 228.89595032 C107.53013777 228.75037284 107.53013777 228.75037284 104.37109375 225.82421875 C102.58391083 222.58367956 102.29048825 220.82328876 102.91113281 217.17700195 C104.77823192 214.87424639 106.26761022 213.49876325 108.91113281 212.17700195 C111.23529577 212.09113386 113.56196588 212.06989152 115.88769531 212.0793457 C116.57294281 212.08076065 117.25819031 212.0821756 117.96420288 212.08363342 C120.15489042 212.08923521 122.34547611 212.10178789 124.53613281 212.11450195 C126.02050634 212.11951673 127.50488146 212.12407967 128.98925781 212.12817383 C132.62991597 212.13920518 136.27051445 212.15647096 139.91113281 212.17700195 C139.6989209 211.20621704 139.6989209 211.20621704 139.48242188 210.21582031 C138.45608042 205.34610971 137.63513342 200.73788595 137.66113281 195.73950195 C137.65597656 194.75079102 137.65082031 193.76208008 137.64550781 192.7434082 C138.01047914 187.84313144 139.0321167 183.01159057 139.91113281 178.17700195 C64.67113281 178.17700195 -10.56886719 178.17700195 -88.08886719 178.17700195 C-87.09886719 183.62200195 -87.09886719 183.62200195 -86.08886719 189.17700195 C-85.82324219 192.7434082 -85.82324219 192.7434082 -85.83886719 195.73950195 C-85.83113281 197.22643555 -85.83113281 197.22643555 -85.82324219 198.7434082 C-86.05437878 201.73118854 -86.50380094 204.46377365 -87.10546875 207.39160156 C-87.2886969 208.28874374 -87.47192505 209.18588593 -87.66070557 210.11021423 C-87.8019989 210.79225418 -87.94329224 211.47429413 -88.08886719 212.17700195 C-87.23795659 212.17423657 -86.38704599 212.1714712 -85.51035023 212.16862202 C-64.81251894 212.1023892 -44.11470589 212.05273452 -23.41679096 212.02156544 C-13.40746062 212.00609194 -3.39820098 211.98499316 6.61108398 211.95068359 C15.33446306 211.92079606 24.05779093 211.90143047 32.78121978 211.89473647 C37.4008641 211.89082312 42.02036193 211.88161614 46.63995934 211.85981178 C50.98767909 211.83945684 55.33519191 211.83316614 59.68295479 211.83767891 C61.27891031 211.83685326 62.87487272 211.83088165 64.47078705 211.81938553 C66.65006507 211.80445657 68.82856214 211.80804929 71.00785828 211.8162384 C72.22739039 211.81347302 73.44692251 211.81070765 74.70341015 211.80785847 C78.2185738 212.21238214 80.10105029 213.06394361 82.91113281 215.17700195 C84.337755 218.03024633 84.22147149 220.01154744 83.91113281 223.17700195 C82.333951 225.84047413 82.333951 225.84047413 79.91113281 228.17700195 C76.70545483 228.77992535 76.70545483 228.77992535 72.83354187 228.74894714 C72.12044147 228.75024716 71.40734107 228.75154718 70.67263156 228.75288659 C68.28225345 228.75141662 65.89374028 228.71437974 63.50366211 228.67773438 C61.79032275 228.66981557 60.07697121 228.66423762 58.36361694 228.66082764 C54.67314287 228.64928486 50.98318251 228.62277168 47.29288292 228.58519554 C41.45593538 228.5274986 35.61938068 228.51303817 29.78218079 228.50642395 C13.18362524 228.48099794 -3.41437549 228.39736926 -20.01245117 228.27001953 C-29.17911557 228.20007026 -38.34522506 228.16605537 -47.51216191 228.17043573 C-53.31344624 228.1710371 -59.11210797 228.12677763 -64.91284716 228.04920328 C-68.52551223 228.01134781 -72.13724226 228.0153142 -75.75003433 228.0309906 C-77.42264875 228.02987666 -79.09535458 228.01165038 -80.76756477 227.97486305 C-89.78240728 227.52095823 -89.78240728 227.52095823 -97.54491234 231.33306313 C-99.3240088 233.87252156 -100.67981317 236.42130563 -102.08886719 239.17700195 C-112.05737459 251.12893815 -128.0362112 259.95681047 -143.62475586 261.4140625 C-164.67625216 262.45366594 -181.33548899 258.50499462 -197.77636719 244.61450195 C-208.45232044 234.44692743 -217.19046604 219.6468099 -218.26586914 204.72021484 C-218.94600047 176.18992485 -218.94600047 176.18992485 -210.08886719 164.17700195 C-207.27971245 162.77242458 -205.20076184 162.92805038 -202.08886719 163.17700195 C-199.77636719 164.17700195 -199.77636719 164.17700195 -198.08886719 166.17700195 C-196.55752007 171.44100767 -197.03618198 174.43259008 -199.02636719 179.48950195 C-203.28723483 191.27392959 -202.47158731 204.5337684 -197.69824219 216.0246582 C-190.72480817 229.68378745 -180.29251966 238.31600926 -165.85839844 243.2902832 C-151.72929003 246.61391803 -137.84250501 244.31076237 -125.40136719 237.05200195 C-114.0705658 229.34575087 -107.15034921 218.80023264 -103.71386719 205.55200195 C-101.39578009 192.43210693 -104.0590346 179.48331602 -111.08886719 168.17700195 C-112.63576096 166.21054973 -114.22530703 164.36148816 -115.95214844 162.55200195 C-117.08886719 161.17700195 -117.08886719 161.17700195 -117.08886719 159.17700195 C-117.91837891 158.78834961 -117.91837891 158.78834961 -118.76464844 158.3918457 C-121.40460334 157.01197012 -123.80298525 155.39913052 -126.27636719 153.73950195 C-136.888138 146.9338196 -148.69636342 144.56618163 -161.18652344 146.70825195 C-165.89269018 147.80298606 -170.14633497 149.05627019 -174.40136719 151.36450195 C-178.08368625 153.34728914 -180.86939365 153.82615173 -185.08886719 153.17700195 C-188.13219139 151.0947275 -188.93194908 149.71500691 -189.96386719 146.17700195 C-190.10084751 142.88947429 -189.898274 141.85973518 -188.08886719 139.17700195 C-175.13480617 130.79375677 -158.09799277 126.6698416 -142.86010742 129.85107422 C-141.73805908 130.12491943 -140.61601074 130.39876465 -139.45996094 130.6809082 C-129.74919836 132.81642136 -120.04165979 132.50585535 -110.15136719 132.36450195 C-108.2926542 132.34941157 -106.43392922 132.33573095 -104.57519531 132.32348633 C-100.07944907 132.29086303 -95.58429571 132.23932748 -91.08886719 132.17700195 C-89.10886719 127.22700195 -87.12886719 122.27700195 -85.08886719 117.17700195 C-86.04776855 116.24428467 -87.00666992 115.31156738 -87.99462891 114.35058594 C-91.55945603 110.87647156 -95.10753577 107.38566118 -98.65087891 103.88964844 C-100.18479261 102.38083043 -101.72317041 100.87653652 -103.26611328 99.37695312 C-105.48725335 97.21667602 -107.69166287 95.04046766 -109.89355469 92.8605957 C-110.58319305 92.19676376 -111.27283142 91.53293182 -111.98336792 90.84898376 C-116.62725172 86.20783806 -118.85240999 82.66180676 -119.20605469 75.9543457 C-119.12613281 75.34719727 -119.04621094 74.74004883 -118.96386719 74.11450195 C-118.89941406 73.50477539 -118.83496094 72.89504883 -118.76855469 72.2668457 C-116.6960696 65.89454961 -111.46463115 61.25905432 -106.83886719 56.66137695 C-106.14374023 55.96433655 -105.44861328 55.26729614 -104.73242188 54.5491333 C-103.26905846 53.08441462 -101.80318923 51.62219562 -100.33496094 50.16235352 C-98.08912498 47.92725852 -95.85419634 45.68165416 -93.62011719 43.43481445 C-92.19367496 42.0096933 -90.76661273 40.58519239 -89.33886719 39.16137695 C-88.67209961 38.49056091 -88.00533203 37.81974487 -87.31835938 37.12860107 C-86.6909082 36.50745422 -86.06345703 35.88630737 -85.41699219 35.24633789 C-84.86946289 34.70039978 -84.32193359 34.15446167 -83.7578125 33.59197998 C-80.27180245 30.63644418 -77.30118641 29.86600223 -72.77636719 29.80200195 C-71.87273437 29.77364258 -70.96910156 29.7452832 -70.03808594 29.71606445 C-62.82248691 30.84380046 -57.9537075 35.89256546 -53.06152344 40.91137695 C-52.42774277 41.54940247 -51.7939621 42.18742798 -51.14097595 42.8447876 C-49.13722591 44.86520267 -47.14421777 46.89584122 -45.15136719 48.92700195 C-43.78683178 50.30659989 -42.42160397 51.68551335 -41.05566406 53.0637207 C-37.72533974 56.42695261 -34.40460222 59.79938843 -31.08886719 63.17700195 C-29.67395996 62.69855835 -29.67395996 62.69855835 -28.23046875 62.21044922 C-25.08886719 61.17700195 -25.08886719 61.17700195 -22.82324219 60.6418457 C-20.61270368 60.05439945 -18.96877743 59.49555011 -17.08886719 58.17700195 C-16.19154403 55.86898325 -15.84528516 53.72185483 -15.49511719 51.2746582 C-15.08886719 49.17700195 -15.08886719 49.17700195 -13.33886719 47.11450195 C-10.3069031 45.85118358 -8.34892685 45.71127914 -5.08886719 46.17700195 C-2.43261719 47.8059082 -2.43261719 47.8059082 -0.08886719 50.17700195 C1.10166351 55.90042285 0.72183365 61.4655224 -1.77636719 66.73950195 C-6.43765833 71.65275477 -11.16242326 74.37990207 -17.33886719 76.92700195 C-18.05171875 77.24282227 -18.76457031 77.55864258 -19.49902344 77.8840332 C-25.71659975 80.47188929 -31.49642791 81.57130075 -37.91259766 79.08105469 C-41.95958365 76.65504056 -44.956236 73.6838557 -48.23730469 70.3215332 C-48.89469635 69.6598967 -49.55208801 68.99826019 -50.22940063 68.3165741 C-52.31474198 66.21452284 -54.38937245 64.10225286 -56.46386719 61.98950195 C-57.88114003 60.5571724 -59.29910169 59.12552407 -60.71777344 57.69458008 C-64.18282903 54.1965572 -67.63832053 50.68933526 -71.08886719 47.17700195 C-75.21277118 49.07018036 -78.02167323 51.85525563 -81.16699219 55.05981445 C-81.73842957 55.63408173 -82.30986694 56.208349 -82.89862061 56.80001831 C-84.71679664 58.62936005 -86.5278821 60.46554388 -88.33886719 62.30200195 C-89.57278048 63.54594969 -90.8071504 64.78944466 -92.04199219 66.0324707 C-95.06293461 69.07542562 -98.07753811 72.1245345 -101.08886719 75.17700195 C-99.45917795 79.39517037 -96.31903377 82.13007727 -93.12792969 85.19262695 C-91.92192037 86.37333045 -90.71620037 87.55432952 -89.51074219 88.7355957 C-87.61652609 90.58035063 -85.71929816 92.42176245 -83.81640625 94.25756836 C-81.97368429 96.03937785 -80.14402351 97.83383646 -78.31542969 99.63012695 C-77.7517569 100.16688049 -77.18808411 100.70363403 -76.60733032 101.25665283 C-71.89418138 105.91013716 -68.55192297 110.90145159 -67.61230469 117.5480957 C-68.25678131 122.45562674 -69.84989601 126.67446708 -71.71386719 131.23950195 C-72.04515625 132.11155273 -72.37644531 132.98360352 -72.71777344 133.88208008 C-74.99766186 139.56459444 -77.37671479 143.23354285 -82.08886719 147.17700195 C-89.1897588 149.96663794 -96.55782339 149.33593632 -104.08886719 149.17700195 C-99.53993441 157.35851697 -99.53993441 157.35851697 -91.95529175 162.24963379 C-88.28006216 162.56312761 -84.76919312 162.529121 -81.08496094 162.34887695 C-79.10641869 162.3234079 -79.10641869 162.3234079 -77.08790588 162.29742432 C-73.60813124 162.25195404 -70.13452756 162.13445532 -66.65716553 162.00097656 C-63.09813954 161.87741839 -59.53809898 161.82324799 -55.97753906 161.76293945 C-49.01213878 161.63487472 -42.05080031 161.4305447 -35.08886719 161.17700195 C-34.88725983 160.4217775 -34.68565247 159.66655304 -34.47793579 158.88844299 C-34.21113007 157.89771286 -33.94432434 156.90698273 -33.66943359 155.88623047 C-33.40595123 154.90413101 -33.14246887 153.92203156 -32.8710022 152.91017151 C-30.01394781 142.92619948 -24.39502422 135.37989175 -17.08886719 128.17700195 C-16.24195313 127.31461914 -16.24195313 127.31461914 -15.37792969 126.43481445 C-4.43116538 116.12883635 10.78107033 112.50585838 25.43457031 112.89575195 C40.96484248 114.15213352 53.02766718 120.15676027 63.91113281 131.17700195 C64.47445313 131.7184082 65.03777344 132.25981445 65.61816406 132.81762695 C71.7227611 139.19604497 76.18862671 148.33834455 78.00585938 156.90795898 C78.17780823 157.70992706 78.34975708 158.51189514 78.5269165 159.33816528 C78.65370789 159.94498138 78.78049927 160.55179749 78.91113281 161.17700195 C87.65597309 161.38596582 96.39994843 161.54565847 105.14674473 161.6433115 C109.2088371 161.69019306 113.26921611 161.75372068 117.33032227 161.85595703 C121.25325647 161.95409157 125.17454838 162.00762752 129.09861565 162.03089714 C130.59190667 162.04746771 132.08511233 162.07983092 133.57769966 162.12857246 C141.98041384 162.59738745 141.98041384 162.59738745 149.3588562 159.21896362 C151.15100626 156.94596262 152.56040931 154.73148646 153.91113281 152.17700195 C154.57113281 151.18700195 155.23113281 150.19700195 155.91113281 149.17700195 C154.98216187 149.20056763 154.98216187 149.20056763 154.03442383 149.22460938 C151.18092277 149.28764225 148.3275689 149.32620633 145.47363281 149.36450195 C144.49974609 149.38963867 143.52585937 149.41477539 142.52246094 149.44067383 C135.56911704 149.51043982 128.7508031 149.33401664 123.15893555 144.73632812 C119.18106867 140.46366682 117.0371649 135.5979798 115.03613281 130.17700195 C114.72933594 129.4087207 114.42253906 128.64043945 114.10644531 127.84887695 C112.13127441 122.66405334 110.56341676 117.8050181 112.59286499 112.34179688 C115.15977446 106.97513824 118.38860021 103.16570399 122.64550781 99.05200195 C123.28353333 98.41963623 123.92155884 97.78727051 124.57891846 97.13574219 C126.59704225 95.13981324 128.62868758 93.15833469 130.66113281 91.17700195 C132.04096135 89.81726014 133.41987706 88.45659137 134.79785156 87.0949707 C138.15849067 83.77817455 141.53132152 80.47425491 144.91113281 77.17700195 C143.27335237 72.98074286 140.17790099 70.1902341 137.02832031 67.09887695 C136.1669194 66.24172089 136.1669194 66.24172089 135.28811646 65.36724854 C133.45877471 63.54907251 131.62259088 61.73798704 129.78613281 59.92700195 C128.54218507 58.69308866 127.29869011 57.45871874 126.05566406 56.22387695 C123.01270914 53.20293453 119.96360027 50.18833103 116.91113281 47.17700195 C114.07148417 48.46554701 112.04597017 49.80308195 109.87426758 52.03442383 C109.31010635 52.60841919 108.74594513 53.18241455 108.16468811 53.77380371 C107.56667892 54.39154663 106.96866974 55.00928955 106.35253906 55.64575195 C105.06685133 56.95185924 103.78104024 58.2578451 102.49511719 59.5637207 C100.48040921 61.6219328 98.46823352 63.68254582 96.45874023 65.74584961 C94.51314339 67.73978279 92.55838268 69.7243764 90.60253906 71.70825195 C90.00655411 72.32599487 89.41056915 72.94373779 88.79652405 73.5802002 C84.5468974 77.87988014 80.95832354 80.44358631 74.70410156 80.5246582 C69.39326893 80.39378451 65.04815557 78.7153166 60.22363281 76.61450195 C59.40830078 76.2915918 58.59296875 75.96868164 57.75292969 75.63598633 C51.47682651 72.97232087 47.00065913 69.35605459 43.91113281 63.17700195 C43.79308105 61.66622625 43.73416833 60.15061365 43.70581055 58.63549805 C43.68586533 57.69467377 43.6659201 56.75384949 43.64537048 55.78451538 C43.62030174 54.2578978 43.62030174 54.2578978 43.59472656 52.70043945 C43.57394547 51.66005524 43.55316437 50.61967102 43.53175354 49.54776001 C43.46623409 46.21590946 43.40736189 42.88397845 43.34863281 39.55200195 C43.30544988 37.29678521 43.26183566 35.04157669 43.21777344 32.78637695 C43.10973663 27.24999998 43.01068079 21.71356419 42.91113281 16.17700195 C29.05113281 16.17700195 15.19113281 16.17700195 0.91113281 16.17700195 C0.58113281 18.48700195 0.25113281 20.79700195 -0.08886719 23.17700195 C-2.72037226 26.10925046 -4.24738298 27.05678992 -8.15136719 27.61450195 C-11.39946233 27.1307431 -12.78297993 26.48288921 -15.08886719 24.17700195 C-16.82152181 18.97903808 -16.5340607 14.63624736 -14.96386719 9.48950195 C-11.49244419 3.35665466 -7.09454938 0.07455462 0 0 Z M-10.33105469 143.96606445 C-14.83783509 149.63459269 -16.90372074 155.06612326 -18.08886719 162.17700195 C8.31113281 162.17700195 34.71113281 162.17700195 61.91113281 162.17700195 C60.07280373 153.90452108 58.82784577 150.41171489 53.91113281 144.17700195 C53.4303125 143.55825195 52.94949219 142.93950195 52.45410156 142.30200195 C45.82772736 134.78651931 35.07244311 129.70371784 25.14941406 128.97387695 C10.9958313 128.74711728 -0.5298707 133.60934777 -10.33105469 143.96606445 Z M163.09863281 166.42700195 C155.86661103 176.15518256 153.00648297 188.2191759 153.91113281 200.17700195 C156.15476047 214.57508493 161.95459338 225.57598311 172.91113281 235.17700195 C176.73901425 237.96898764 180.61797342 240.18208278 184.91113281 242.17700195 C185.67425781 242.53536133 186.43738281 242.8937207 187.22363281 243.26293945 C198.85186528 247.66390244 213.44260797 246.45596118 224.74316406 241.8059082 C231.49211183 238.33573407 237.43397012 234.34744538 241.91113281 228.17700195 C240.78618408 228.15718262 239.66123535 228.13736328 238.50219727 228.11694336 C234.31805501 228.0407204 230.13425294 227.95202889 225.95043945 227.85961914 C224.14158864 227.82139828 222.3326636 227.78653346 220.52368164 227.75512695 C217.91948979 227.70932638 215.31580581 227.65135722 212.71191406 227.59106445 C211.90651688 227.57951324 211.10111969 227.56796204 210.27131653 227.55606079 C206.10277647 227.447136 202.65401035 227.23211098 198.91113281 225.17700195 C197.91113281 223.08325195 197.91113281 223.08325195 196.91113281 220.17700195 C195.33101593 217.29284808 193.61226098 214.49115398 191.91113281 211.67700195 C184.20477422 198.92848302 184.20477422 198.92848302 185.22509766 191.71899414 C186.60452508 186.60774917 189.46074555 182.27181957 192.22363281 177.80200195 C192.80564453 176.81844727 193.38765625 175.83489258 193.98730469 174.8215332 C199.67505456 165.40421687 199.67505456 165.40421687 204.671875 163.50927734 C208.01787267 163.01277682 211.36333996 162.93862484 214.73925781 162.8605957 C215.48826355 162.83981461 216.23726929 162.81903351 217.00897217 162.79762268 C219.39293569 162.73243108 221.77700593 162.67338412 224.16113281 162.61450195 C225.78093535 162.5712878 227.40072724 162.52767259 229.02050781 162.48364258 C232.98394113 162.37678099 236.94748141 162.27542862 240.91113281 162.17700195 C236.92261085 156.874923 233.10312509 153.65151157 227.09863281 150.86450195 C226.0347937 150.3559668 226.0347937 150.3559668 224.94946289 149.8371582 C201.87937552 139.10123297 178.98444744 147.72162715 163.09863281 166.42700195 Z " fill="#000000" transform="translate(234.0888671875,-0.177001953125)"/>
<path d="M0 0 C0.72624573 0.00091644 1.45249146 0.00183289 2.20074463 0.0027771 C3.7338313 0.00880057 5.2669069 0.02450911 6.79980469 0.04931641 C9.1195936 0.08560847 11.43777037 0.09033675 13.7578125 0.08984375 C27.92583865 0.15616944 39.95045043 2.02076293 50.390625 12.4609375 C56.76138084 21.29138564 59.42827396 29.59032931 58.390625 40.4609375 C56.52668981 50.79872928 50.88481879 58.42700703 42.390625 64.4609375 C37.28455925 67.58416484 32.22085811 69.21160183 26.390625 70.4609375 C31.32392791 76.70723834 36.43850282 82.66800791 41.890625 88.4609375 C45.87187144 92.71863519 49.83576161 96.98164545 53.640625 101.3984375 C54.34703125 102.21183594 55.0534375 103.02523437 55.78125 103.86328125 C57.79328059 107.1108549 58.19258798 109.66742829 58.390625 113.4609375 C56.953125 116.3984375 56.953125 116.3984375 54.390625 118.4609375 C49.06226679 119.30670864 49.06226679 119.30670864 46.390625 118.4609375 C44.02734375 116.3359375 44.02734375 116.3359375 41.390625 113.4609375 C40.38629403 112.4054145 39.38104405 111.35076536 38.375 110.296875 C32.6073841 104.14617023 27.05943345 97.92637378 21.79296875 91.3359375 C18.26898051 87.11861173 14.50937391 83.13142246 10.73046875 79.14257812 C10.19679688 78.57732422 9.663125 78.01207031 9.11328125 77.4296875 C8.63640869 76.92888672 8.15953613 76.42808594 7.66821289 75.91210938 C6.390625 74.4609375 6.390625 74.4609375 4.390625 71.4609375 C4.37604248 72.67676514 4.36145996 73.89259277 4.34643555 75.14526367 C4.28837402 79.66492828 4.2111414 84.18409877 4.12817383 88.70336914 C4.09496146 90.65771452 4.06691805 92.61215497 4.04418945 94.56665039 C4.01057567 97.37948032 3.95825646 100.19144197 3.90234375 103.00390625 C3.89275887 104.31043404 3.89275887 104.31043404 3.88298035 105.64335632 C3.75767514 110.83729079 3.24809346 114.60346904 -0.609375 118.4609375 C-7.71771603 119.0435884 -7.71771603 119.0435884 -10.70762634 117.08984375 C-13.68386421 112.97560378 -13.17491176 108.92884892 -13.14282227 103.97265625 C-13.15143784 102.90560455 -13.16005341 101.83855286 -13.16893005 100.73916626 C-13.19165057 97.20867728 -13.18483994 93.67897807 -13.17578125 90.1484375 C-13.18101389 87.69750735 -13.18728904 85.24657923 -13.19456482 82.7956543 C-13.20498016 77.65761848 -13.20039068 72.51985943 -13.18579102 67.38183594 C-13.168597 60.79052498 -13.19210139 54.20008519 -13.22728062 47.60887146 C-13.24921721 42.54742635 -13.24782219 37.48619091 -13.2395153 32.42471313 C-13.23869384 29.99418176 -13.24559435 27.5636353 -13.26028633 25.13314819 C-13.27766335 21.7379565 -13.26324514 18.34434615 -13.24047852 14.94921875 C-13.25217072 13.9413028 -13.26386292 12.93338684 -13.27590942 11.89492798 C-13.18312998 5.11076834 -13.18312998 5.11076834 -10.29154968 1.83578491 C-6.82574918 0.05926123 -3.80581092 -0.07930394 0 0 Z M3.390625 16.4609375 C3.390625 28.6709375 3.390625 40.8809375 3.390625 53.4609375 C7.185625 53.5434375 10.980625 53.6259375 14.890625 53.7109375 C16.07076172 53.74735352 17.25089844 53.78376953 18.46679688 53.82128906 C25.7014136 53.89700585 31.46422443 53.1175323 36.90771484 48.0480957 C40.99154721 43.4627787 42.62936694 39.72414633 42.453125 33.6484375 C41.71691768 27.70555915 38.77980048 24.33757657 34.390625 20.4609375 C29.73520293 17.10470298 25.85354561 16.33033912 20.1875 16.36328125 C19.30416992 16.36577881 18.42083984 16.36827637 17.51074219 16.37084961 C16.39860352 16.37995361 15.28646484 16.38905762 14.140625 16.3984375 C8.819375 16.429375 8.819375 16.429375 3.390625 16.4609375 Z " fill="#000000" transform="translate(358.609375,393.5390625)"/>
<path d="M0 0 C6.32390262 1.95466081 9.14127334 7.32177586 12.640625 12.6015625 C13.1232782 13.32362885 13.6059314 14.04569519 14.10321045 14.78964233 C15.11730059 16.30942142 16.12907901 17.83074528 17.13867188 19.35351562 C18.68973348 21.69086572 20.25058998 24.02145176 21.8125 26.3515625 C22.79746761 27.83033462 23.78186291 29.30948813 24.765625 30.7890625 C25.23429993 31.48802643 25.70297485 32.18699036 26.18585205 32.90713501 C29.4375 37.83255369 29.4375 37.83255369 29.4375 40.0625 C33.19184871 36.64841637 35.76384646 32.78333954 38.5 28.55859375 C39.47124702 27.08130976 40.44260452 25.6040984 41.4140625 24.12695312 C42.93040796 21.8088929 44.444432 19.4893557 45.95605469 17.16821289 C47.42307537 14.91936824 48.8985777 12.67627307 50.375 10.43359375 C51.04704468 9.39288979 51.04704468 9.39288979 51.73266602 8.3311615 C55.93930309 1.95541521 55.93930309 1.95541521 59.4375 0.0625 C62.83435818 0.18168801 65.37750615 0.48121305 68.375 2.125 C70.15593658 5.37259023 70.06359667 8.51264654 69.4375 12.0625 C67.76387363 15.70822673 65.56580696 18.93912121 63.3125 22.25 C62.69246094 23.19673584 62.07242188 24.14347168 61.43359375 25.11889648 C58.1376958 30.12947374 54.74618576 35.06984314 51.3203125 39.9921875 C50.66949707 40.93811768 50.01868164 41.88404785 49.34814453 42.85864258 C48.09331298 44.67547063 46.82126413 46.48055 45.53076172 48.2722168 C44.68022217 49.50065308 44.68022217 49.50065308 43.8125 50.75390625 C43.05066406 51.82427124 43.05066406 51.82427124 42.2734375 52.91625977 C41.19710488 55.06872483 41.19710488 55.06872483 42.02758789 57.4284668 C43.71734262 60.58530902 45.60912221 63.55893665 47.62109375 66.515625 C48.03301468 67.12899216 48.44493561 67.74235931 48.86933899 68.37431335 C49.74776877 69.68156695 50.628168 70.98749897 51.51037598 72.29220581 C52.88222243 74.32319264 54.24643508 76.35910317 55.60839844 78.39672852 C59.44900861 84.14035187 63.30257268 89.87373101 67.20703125 95.57421875 C68.20086397 97.04924803 69.19439044 98.52448374 70.1875 100 C70.63407959 100.63518555 71.08065918 101.27037109 71.54077148 101.92480469 C74.32128327 106.09471928 74.99431258 109.08750068 74.4375 114.0625 C72.9375 116.5 72.9375 116.5 70.4375 118.0625 C65.47843843 118.94233351 65.47843843 118.94233351 62.4375 118.0625 C58.02497017 114.24203813 54.95810281 108.97163403 52 104 C47.05964924 95.87118194 41.704001 88.05103611 36.26391602 80.24975586 C35.63799561 79.34491455 35.0120752 78.44007324 34.3671875 77.5078125 C33.80241699 76.69844238 33.23764648 75.88907227 32.65576172 75.05517578 C31.4375 73.0625 31.4375 73.0625 31.4375 71.0625 C30.7775 71.0625 30.1175 71.0625 29.4375 71.0625 C29.22665771 71.70364746 29.01581543 72.34479492 28.79858398 73.00537109 C26.8805073 77.31356055 24.28375618 81.06800622 21.66015625 84.9765625 C21.093004 85.82801849 20.52585175 86.67947449 19.94151306 87.55673218 C18.74424264 89.35180952 17.54469228 91.14536802 16.34301758 92.9375 C14.50445156 95.68085774 12.67457785 98.42986216 10.84570312 101.1796875 C9.68020105 102.92482226 8.51420219 104.66962535 7.34765625 106.4140625 C6.80069595 107.23597076 6.25373566 108.05787903 5.69020081 108.9046936 C5.17634323 109.66913788 4.66248566 110.43358215 4.13305664 111.22119141 C3.4592672 112.22782333 3.4592672 112.22782333 2.77186584 113.25479126 C1.41991622 115.08632132 0.20381158 116.62127613 -1.5625 118.0625 C-8.35495283 118.81721698 -8.35495283 118.81721698 -12.0625 116.5 C-14.05905026 113.25560583 -14.31889192 110.72324295 -13.5625 107.0625 C-11.82614433 103.47225592 -9.61044124 100.25024032 -7.359375 96.96484375 C-6.72517639 96.01235245 -6.09097778 95.05986115 -5.43756104 94.07850647 C-3.41078746 91.04203234 -1.36215508 88.02106358 0.6875 85 C2.05225432 82.96387721 3.41555217 80.92677739 4.77734375 78.88867188 C7.28304279 75.14353724 9.79656659 71.40396741 12.32128906 67.67163086 C12.85886841 66.87022675 13.39644775 66.06882263 13.95031738 65.24313354 C14.86905869 63.89599696 15.80825342 62.56225612 16.7791748 61.25222778 C18.93229656 58.48514824 18.93229656 58.48514824 19.18083191 55.14172363 C18.37788444 52.89574531 17.37885785 51.15489754 16.06079102 49.16772461 C15.56680313 48.41692123 15.07281525 47.66611786 14.56385803 46.89256287 C14.02844894 46.09141556 13.49303986 45.29026825 12.94140625 44.46484375 C12.39266342 43.63416885 11.84392059 42.80349396 11.27854919 41.94764709 C9.52434753 39.29486715 7.76229582 36.647408 6 34 C4.81653722 32.21323499 3.6335884 30.42612944 2.45117188 28.63867188 C-1.21041355 23.10685248 -4.88269215 17.58221177 -8.5625 12.0625 C-9.1307849 7.67858789 -9.03085665 5.74374604 -6.5 2.0625 C-3.5625 0.0625 -3.5625 0.0625 0 0 Z " fill="#000000" transform="translate(99.5625,393.9375)"/>
<path d="M0 0 C0.76398102 -0.0066568 1.52796204 -0.0133136 2.31509399 -0.02017212 C3.93741454 -0.03030195 5.55977677 -0.03498904 7.18212891 -0.03466797 C9.62085761 -0.038986 12.05769209 -0.07514253 14.49609375 -0.11328125 C26.94099639 -0.20426102 38.54555631 0.96001457 48.359375 9.42578125 C56.40436972 17.3893489 60.64009164 25.90774455 60.7890625 37.3359375 C60.64052612 48.73080009 56.39802335 56.85173335 48.69921875 65.0234375 C41.67128164 71.63796655 32.48572617 74.47837459 22.9921875 74.43359375 C21.18427734 74.42875977 21.18427734 74.42875977 19.33984375 74.42382812 C18.08558594 74.41544922 16.83132812 74.40707031 15.5390625 74.3984375 C14.26933594 74.39392578 12.99960938 74.38941406 11.69140625 74.38476562 C8.55724414 74.37298306 5.42317709 74.35653166 2.2890625 74.3359375 C2.31000977 75.52670898 2.33095703 76.71748047 2.35253906 77.94433594 C2.42497212 82.36478639 2.47087422 86.78518446 2.50878906 91.20605469 C2.52889702 93.11890485 2.55618757 95.03169361 2.59082031 96.94433594 C2.63937499 99.69481561 2.66203908 102.44448227 2.6796875 105.1953125 C2.70033264 106.04961853 2.72097778 106.90392456 2.74224854 107.78411865 C2.74449109 113.72614024 2.74449109 113.72614024 0.3918457 116.8762207 C-3.16197015 119.34322001 -5.45834248 118.80844806 -9.7109375 118.3359375 C-12.38525239 116.52430483 -12.67014109 115.45832673 -13.7109375 112.3359375 C-13.80550123 110.9005124 -13.8457861 109.46113924 -13.85137939 108.02261353 C-13.85708954 107.14222916 -13.86279968 106.26184479 -13.86868286 105.3547821 C-13.86980072 104.39159561 -13.87091858 103.42840912 -13.87207031 102.43603516 C-13.87703522 101.41950363 -13.88200012 100.40297211 -13.88711548 99.3556366 C-13.90174115 95.98708422 -13.90853947 92.61857893 -13.9140625 89.25 C-13.9198132 86.91213988 -13.92557095 84.57427977 -13.93133545 82.23641968 C-13.94184631 77.33209005 -13.94768856 72.42777681 -13.95117188 67.5234375 C-13.95665961 61.23621626 -13.98069345 54.94921125 -14.00914383 48.66205788 C-14.02775723 43.8322384 -14.0329751 39.00247118 -14.03450775 34.17261887 C-14.03753726 31.85455517 -14.04557577 29.53649246 -14.05869293 27.2184639 C-14.07572746 23.97701756 -14.07387942 20.73610172 -14.06738281 17.49462891 C-14.0765976 16.53549088 -14.08581238 15.57635284 -14.0953064 14.58815002 C-14.0646349 9.70846994 -13.98067821 6.24355509 -10.7109375 2.3359375 C-7.04558305 -0.10763213 -4.24339607 0.01291634 0 0 Z M2.2890625 16.3359375 C2.26403054 20.54939399 2.24604824 24.76280915 2.23413086 28.97631836 C2.22915388 30.40471146 2.22236988 31.83309962 2.21362305 33.26147461 C2.16348675 41.66962609 2.30309563 49.97133695 3.2890625 58.3359375 C7.08030997 58.48307811 10.87080904 58.57061577 14.6640625 58.6484375 C16.25541016 58.7112793 16.25541016 58.7112793 17.87890625 58.77539062 C25.36698463 58.89023845 31.10407715 57.72903145 37.2890625 53.3359375 C42.65462239 47.60040771 44.68440346 42.82223175 44.55859375 34.96484375 C44.03286821 29.83711489 42.17253179 26.13925916 38.453125 22.578125 C30.62671137 16.37096937 23.63102406 16.0621501 13.9140625 16.2109375 C12.23763672 16.22447266 12.23763672 16.22447266 10.52734375 16.23828125 C7.78102788 16.26175404 5.03515778 16.29459022 2.2890625 16.3359375 Z " fill="#000000" transform="translate(200.7109375,393.6640625)"/>
<path d="M0 0 C2.30275556 1.8670991 3.67823871 3.35647741 5 6 C5.08674753 8.69868772 5.11565317 11.37190801 5.09765625 14.0703125 C5.09664917 14.77599365 5.09564209 15.4816748 5.09460449 16.20874023 C5.08936828 18.84750999 5.07540702 21.48625661 5.0625 24.125 C5.041875 30.02375 5.02125 35.9225 5 42 C19.52 42 34.04 42 49 42 C48.92100342 30.70656803 48.92100342 30.70656803 48.81982422 19.41333008 C48.81397927 17.99040019 48.80888371 16.56746695 48.8046875 15.14453125 C48.79445557 14.41439819 48.78422363 13.68426514 48.77368164 12.93200684 C48.77229434 8.85681178 49.00269576 5.59589445 51 2 C54.7205836 -0.48038907 56.59796571 -0.46337203 61 0 C63.1893158 1.44824219 63.1893158 1.44824219 65 4 C65.59897827 7.06486028 65.55662561 10.08821274 65.53344727 13.203125 C65.54637062 14.59887756 65.54637062 14.59887756 65.55955505 16.02282715 C65.58225937 19.09883431 65.57546824 22.1739338 65.56640625 25.25 C65.57163962 27.38704704 65.57791504 29.52409175 65.58518982 31.66113281 C65.59560212 36.14008453 65.59102015 40.61871869 65.57641602 45.09765625 C65.55922182 50.8415366 65.58272754 56.58441725 65.61790562 62.32818604 C65.63984947 66.7411158 65.63844549 71.15380521 65.6301403 75.56677246 C65.62931924 77.68470354 65.63621218 79.802652 65.65091133 81.92053223 C65.6683025 84.87994136 65.65386 87.83753928 65.63110352 90.796875 C65.64864182 92.11238342 65.64864182 92.11238342 65.66653442 93.45446777 C65.60079237 97.64961115 65.57146105 99.36276194 62.68711853 102.57910156 C59.01894546 104.51876345 56.94325126 104.09534757 53 103 C50.41544715 101.10466125 50.03724494 100.11173483 49 97 C48.91459751 94.0505838 48.88409485 91.12477541 48.90234375 88.17578125 C48.90335083 87.41213257 48.90435791 86.64848389 48.90539551 85.86169434 C48.91062336 83.01194759 48.92458464 80.16222227 48.9375 77.3125 C48.9684375 67.7528125 48.9684375 67.7528125 49 58 C34.48 58 19.96 58 5 58 C5.15806272 70.93918027 5.15806272 70.93918027 5.36035156 83.87768555 C5.37203937 85.50568593 5.38223098 87.13369805 5.390625 88.76171875 C5.41108887 89.59981079 5.43155273 90.43790283 5.45263672 91.3013916 C5.45504504 95.34436884 5.31582293 97.47449485 3.19042969 101.01098633 C0.13768392 103.78302375 -1.9124484 104.07171143 -6 104 C-8.68222046 102.57128906 -8.68222046 102.57128906 -11 100 C-11.74743015 96.93785717 -11.6832046 93.93639983 -11.64697266 90.796875 C-11.65573425 89.86637329 -11.66449585 88.93587158 -11.67352295 87.97717285 C-11.69553199 84.90097441 -11.68095855 81.82621309 -11.6640625 78.75 C-11.66743019 76.61295292 -11.67228241 74.47590771 -11.67855835 72.33886719 C-11.68593174 67.85984056 -11.67520878 63.38131244 -11.65185547 58.90234375 C-11.62336787 53.15843018 -11.63976928 47.41568466 -11.66971779 41.67181396 C-11.6877779 37.25886215 -11.68203855 32.84618767 -11.66907883 28.43322754 C-11.66574128 26.31530622 -11.66984411 24.19735978 -11.68147659 22.07946777 C-11.69416377 19.12000758 -11.67483758 16.16244377 -11.64697266 13.203125 C-11.65709381 12.32611938 -11.66721497 11.44911377 -11.67764282 10.54553223 C-11.57421124 4.62185765 -11.57421124 4.62185765 -8.65097046 1.45605469 C-5.40838487 -0.32494665 -3.64535793 -0.62048646 0 0 Z " fill="#000000" transform="translate(365,273)"/>
<path d="M0 0 C4.93427425 2.97800896 6.55826904 6.83056197 8.46875 12.0390625 C8.79621216 12.89360016 9.12367432 13.74813782 9.46105957 14.62857056 C10.21749531 16.60786822 10.9669271 18.58985082 11.7109375 20.57385254 C13.14761284 24.39233424 14.61109248 28.19994454 16.078125 32.00683594 C18.68111344 38.76999113 21.26074367 45.54174172 23.82614136 52.31924057 C25.32185465 56.27045516 26.82152811 60.22005489 28.33105469 64.16601562 C29.81442751 68.04369415 31.28808099 71.92493233 32.754776 75.80894852 C33.3095912 77.27339454 33.86775602 78.73657636 34.4294281 80.19840622 C35.20905418 82.22961775 35.97605733 84.26518121 36.74023438 86.30224609 C37.17799194 87.45437592 37.61574951 88.60650574 38.06677246 89.79354858 C39.26423034 93.90786192 39.72444081 97.32473062 38 101.3125 C35.4407267 103.47188685 33.37544141 103.84428571 30.1328125 104.41015625 C28 104 28 104 23 99 C21.02 93.72 19.04 88.44 17 83 C3.14 82.67 -10.72 82.34 -25 82 C-25.33 83.65 -25.66 85.3 -26 87 C-26.70126979 89.20360544 -27.45487235 91.39099631 -28.25 93.5625 C-28.64703125 94.67753906 -29.0440625 95.79257812 -29.453125 96.94140625 C-31.19220998 100.38005156 -32.74539116 101.96960182 -36 104 C-39.46758942 103.94021398 -41.88826749 103.60965977 -44.9375 101.9375 C-47.29131856 97.64524263 -46.18274447 92.6420586 -44.90869141 88.16577148 C-44.40317319 86.81241638 -43.88330965 85.4643598 -43.3515625 84.12109375 C-43.06733932 83.37144852 -42.78311615 82.62180328 -42.49028015 81.84944153 C-41.54799231 79.37367687 -40.58693984 76.90568849 -39.625 74.4375 C-38.95619228 72.69605361 -38.28849064 70.95418207 -37.62182617 69.21191406 C-36.18974761 65.47399767 -34.75016704 61.7390687 -33.30712891 58.00537109 C-31.29644507 52.78942383 -29.32438828 47.5596543 -27.36340332 42.32484436 C-25.748885 38.01563968 -24.12525192 33.7098991 -22.50042725 29.40457153 C-21.7104905 27.30687408 -20.92372918 25.20797801 -20.14019775 23.10787964 C-19.03736041 20.15645088 -17.9207792 17.21057681 -16.80078125 14.265625 C-16.47526779 13.38509964 -16.14975433 12.50457428 -15.81437683 11.59736633 C-12.6446485 3.34247242 -9.3829766 -0.79516751 0 0 Z M-4 28 C-7.91014163 37.67827263 -11.80878047 47.36068824 -15.5 57.125 C-15.75475098 57.79273438 -16.00950195 58.46046875 -16.27197266 59.1484375 C-17.57390804 62.48263222 -17.57390804 62.48263222 -18 66 C-8.43 66 1.14 66 11 66 C6.589506 53.2185684 1.99245141 40.56458897 -3 28 C-3.33 28 -3.66 28 -4 28 Z " fill="#000000" transform="translate(62,273)"/>
<path d="M0 0 C0.92453476 -0.00953201 1.84906952 -0.01906403 2.80162048 -0.02888489 C4.2892263 -0.02751778 4.2892263 -0.02751778 5.80688477 -0.02612305 C6.83258072 -0.03040817 7.85827667 -0.0346933 8.91505432 -0.03910828 C11.08284772 -0.04484762 13.25066038 -0.04535475 15.41845703 -0.04101562 C18.73251245 -0.03785684 22.04567414 -0.06131626 25.35961914 -0.08666992 C27.46703989 -0.08894308 29.57446304 -0.08964633 31.68188477 -0.08862305 C32.67159775 -0.09783279 33.66131073 -0.10704254 34.68101501 -0.11653137 C43.35710972 -0.05827726 43.35710972 -0.05827726 47.31079102 3.2746582 C48.19360352 5.1418457 48.19360352 5.1418457 48.43579102 7.1496582 C48.54149414 7.80708008 48.64719727 8.46450195 48.75610352 9.1418457 C48.01371085 12.69751583 46.11101065 14.05352914 43.31079102 16.2746582 C40.36403814 16.94770398 37.51970972 16.85937585 34.51000977 16.76293945 C33.6736348 16.75586472 32.83725983 16.74878998 31.97554016 16.74150085 C29.3155305 16.71360805 26.65765963 16.65088301 23.99829102 16.5871582 C22.1903788 16.56206854 20.38243345 16.53925654 18.57446289 16.51879883 C14.15176093 16.46805649 9.73365691 16.37020739 5.31079102 16.2746582 C5.31079102 27.8246582 5.31079102 39.3746582 5.31079102 51.2746582 C16.64938615 51.15608285 16.64938615 51.15608285 27.98754883 51.00439453 C29.4129977 50.99562958 30.8384541 50.98798566 32.26391602 50.98168945 C33.36678955 50.9586676 33.36678955 50.9586676 34.49194336 50.93518066 C37.65854253 50.93356395 39.93835327 51.0763689 42.7590332 52.578125 C45.20825758 55.25585631 45.18659459 57.73506003 45.31079102 61.2746582 C44.54549098 63.84884924 43.92000289 64.85650204 41.71801758 66.36791992 C38.32526163 67.64588094 35.05541054 67.52119429 31.48266602 67.4699707 C30.81831543 67.46795654 30.15396484 67.46594238 29.46948242 67.46386719 C26.99984787 67.45344322 24.53031214 67.42552066 22.06079102 67.3996582 C16.53329102 67.3584082 11.00579102 67.3171582 5.31079102 67.2746582 C5.31079102 78.8246582 5.31079102 90.3746582 5.31079102 102.2746582 C8.07969727 102.21665039 10.84860352 102.15864258 13.70141602 102.09887695 C16.38546892 102.05987471 19.06949016 102.02951975 21.75366211 102 C23.61806383 101.97486674 25.48236711 101.94075438 27.34643555 101.89746094 C30.02750933 101.83675469 32.70728004 101.80843763 35.38891602 101.78637695 C36.22134827 101.76057053 37.05378052 101.7347641 37.91143799 101.70817566 C42.06036502 101.70616817 43.68920815 101.71557724 46.87231445 104.57861328 C48.8324583 108.25238593 48.40986681 110.31798534 47.31079102 114.2746582 C45.41545226 116.85921105 44.42252585 117.23741326 41.31079102 118.2746582 C39.84925087 118.37549941 38.38365957 118.42292869 36.91870117 118.43579102 C36.03413239 118.44539856 35.1495636 118.4550061 34.2381897 118.46490479 C32.80846329 118.4712796 32.80846329 118.4712796 31.34985352 118.4777832 C30.3671347 118.48348328 29.38441589 118.48918335 28.37191772 118.49505615 C26.29230831 118.50450339 24.21268394 118.51103904 22.13305664 118.51489258 C18.95505621 118.52459936 15.77770219 118.55562606 12.59985352 118.5871582 C10.57902402 118.59368832 8.5581899 118.59893875 6.53735352 118.6027832 C5.58825104 118.61513 4.63914856 118.62747681 3.6612854 118.64019775 C-1.24937392 118.62365514 -4.75985098 118.57311609 -8.68920898 115.2746582 C-10.77203571 112.15041812 -10.93971874 111.46435558 -10.94317627 107.91664124 C-10.94881592 107.02639755 -10.95445557 106.13615387 -10.96026611 105.21893311 C-10.95621765 104.24482483 -10.95216919 103.27071655 -10.94799805 102.26708984 C-10.95150269 101.23919846 -10.95500732 100.21130707 -10.95861816 99.15226746 C-10.96743768 95.74638156 -10.96158503 92.34070255 -10.95483398 88.93481445 C-10.95618067 86.57213806 -10.95812124 84.20946194 -10.96063232 81.8467865 C-10.96358397 76.89115769 -10.95928496 71.93560091 -10.94995117 66.97998047 C-10.93856291 60.62319478 -10.94511198 54.26657809 -10.9570961 47.90979862 C-10.96431887 43.02940088 -10.96202472 38.14904328 -10.95684052 33.26864433 C-10.95550485 30.92464618 -10.95714882 28.58064439 -10.96179962 26.23665047 C-10.96687091 22.96154233 -10.95914559 19.68670875 -10.94799805 16.41162109 C-10.95204651 15.43953705 -10.95609497 14.467453 -10.96026611 13.46591187 C-10.95462646 12.57284836 -10.94898682 11.67978485 -10.94317627 10.75965881 C-10.94242222 9.98556199 -10.94166817 9.21146517 -10.94089127 8.41391087 C-10.65299585 5.96685327 -9.97035694 4.36990895 -8.68920898 2.2746582 C-5.79758523 0.32867637 -3.44093772 0.01954872 0 0 Z " fill="#000000" transform="translate(283.689208984375,393.725341796875)"/>
<path d="M0 0 C1.41671997 -0.0237545 1.41671997 -0.0237545 2.86206055 -0.04798889 C3.87051025 -0.04302902 4.87895996 -0.03806915 5.91796875 -0.03295898 C6.9644458 -0.03915756 8.01092285 -0.04535614 9.08911133 -0.05174255 C11.29800487 -0.05883527 13.50695193 -0.05567634 15.71582031 -0.04296875 C19.09409954 -0.02909941 22.4696107 -0.06318866 25.84765625 -0.10131836 C27.99609443 -0.10226955 30.14453607 -0.10041077 32.29296875 -0.09545898 C33.80564331 -0.1153463 33.80564331 -0.1153463 35.34887695 -0.13563538 C40.05601394 -0.07317235 42.37117211 -0.00819925 46.24609375 2.85009766 C48.68644138 6.3718756 48.79271966 8.33358058 48.10546875 12.53344727 C46.61425781 14.72387695 46.61425781 14.72387695 44.10546875 16.53344727 C41.07640898 16.88234813 38.42243588 17.00099482 35.40234375 16.92407227 C34.56455383 16.91841248 33.72676392 16.91275269 32.86358643 16.90692139 C30.19362709 16.88457056 27.52502088 16.83437825 24.85546875 16.78344727 C23.04298816 16.76338052 21.23048649 16.74513005 19.41796875 16.72875977 C14.97953095 16.68811473 10.54401018 16.60982752 6.10546875 16.53344727 C6.10546875 28.08344727 6.10546875 39.63344727 6.10546875 51.53344727 C17.07032681 51.33596211 17.07032681 51.33596211 28.03393555 51.08300781 C29.41583317 51.06839501 30.79775243 51.0556562 32.1796875 51.04516602 C33.24249939 51.00679626 33.24249939 51.00679626 34.32678223 50.96765137 C38.26274412 50.964203 39.9378949 51.40063645 43.06176758 53.87646484 C45.10546875 56.53344727 45.10546875 56.53344727 45.73046875 59.53344727 C44.87760603 63.6271883 43.36542745 64.94976375 40.10546875 67.53344727 C37.2545218 67.97215609 35.01083058 68.12393875 32.1796875 68.02172852 C31.51634399 68.01669312 30.85300049 68.01165771 30.16955566 68.00646973 C27.71024873 67.98046391 25.25156177 67.91065612 22.79296875 67.84594727 C14.53265625 67.69125977 14.53265625 67.69125977 6.10546875 67.53344727 C6.10546875 79.08344727 6.10546875 90.63344727 6.10546875 102.53344727 C8.8021875 102.48704102 11.49890625 102.44063477 14.27734375 102.39282227 C16.89190794 102.36161888 19.50645132 102.33733561 22.12109375 102.3137207 C23.93694355 102.29361665 25.7527287 102.26632892 27.56835938 102.23168945 C30.1798498 102.18311687 32.79048373 102.160467 35.40234375 102.14282227 C36.21290222 102.12217712 37.02346069 102.10153198 37.85858154 102.08026123 C41.46682711 102.07882776 43.64638932 102.20354526 46.61816406 104.33911133 C48.80026827 107.55853888 48.64780796 109.73707278 48.10546875 113.53344727 C45.88683846 116.440618 44.58601946 117.37326369 41.10546875 118.53344727 C39.67442272 118.62924023 38.23940633 118.67151669 36.80517578 118.67871094 C35.94062775 118.68509079 35.07607971 118.69147064 34.18533325 118.69804382 C33.25405609 118.69915665 32.32277893 118.70026947 31.36328125 118.70141602 C29.9224971 118.70640862 29.9224971 118.70640862 28.4526062 118.71150208 C26.42006916 118.71656573 24.38752381 118.71891057 22.35498047 118.71875 C19.24953457 118.72093386 16.14444541 118.73908833 13.0390625 118.75805664 C11.0638033 118.76099122 9.08854241 118.76297558 7.11328125 118.76391602 C6.18605255 118.77110153 5.25882385 118.77828705 4.30349731 118.78569031 C-1.31166599 118.76585253 -5.72208368 118.70589484 -9.89453125 114.53344727 C-10.15459347 112.58061409 -10.15459347 112.58061409 -10.16868591 110.14382935 C-10.17866104 109.22130371 -10.18863617 108.29877808 -10.19891357 107.34829712 C-10.19957825 106.33319061 -10.20024292 105.31808411 -10.20092773 104.2722168 C-10.20925125 103.20545715 -10.21757477 102.13869751 -10.22615051 101.03961182 C-10.25032861 97.4984578 -10.25903216 93.95748768 -10.265625 90.41625977 C-10.27458528 87.96247296 -10.28370701 85.50868675 -10.29298401 83.05490112 C-10.30949775 77.90499542 -10.31717849 72.75515491 -10.32006836 67.60522461 C-10.32545494 60.99822388 -10.36313711 54.39183374 -10.40881252 47.78500557 C-10.43851879 42.71501413 -10.44579052 37.64517086 -10.44679451 32.57509995 C-10.45100948 30.13896767 -10.46349448 27.70283545 -10.48431206 25.26678848 C-10.51109226 21.86188811 -10.50643989 18.45841781 -10.49389648 15.0534668 C-10.50873077 14.04240875 -10.52356506 13.03135071 -10.53884888 11.98965454 C-10.46750252 5.20722436 -10.46750252 5.20722436 -7.66297913 1.9092865 C-4.82697862 0.49987555 -3.13960801 0.02354553 0 0 Z " fill="#000000" transform="translate(25.89453125,393.466552734375)"/>
<path d="M0 0 C2.30275556 1.8670991 3.67823871 3.35647741 5 6 C5.15378852 7.95774069 5.24971463 9.92017352 5.31640625 11.8828125 C5.35830078 13.04941406 5.40019531 14.21601563 5.44335938 15.41796875 C5.48267578 16.64128906 5.52199219 17.86460937 5.5625 19.125 C5.60568359 20.35605469 5.64886719 21.58710938 5.69335938 22.85546875 C5.79968704 25.90352853 5.90171781 28.9516719 6 32 C10.71281121 27.93682833 15.32606551 23.79493433 19.83447266 19.50610352 C25.17455317 14.42768826 30.54600173 9.37829741 36.125 4.5625 C36.93195313 3.86253906 37.73890625 3.16257812 38.5703125 2.44140625 C41.6256676 0.62882421 43.50180242 0.56747829 47 1 C50.21142855 3.37366458 51.71584605 4.93442268 52.75 8.8125 C50.70264219 17.5137707 41.04109013 23.77563501 34.59814453 29.55908203 C32.4788628 31.46986736 30.38108617 33.40345353 28.28295898 35.33740234 C23.25599982 39.96966636 18.17857702 44.5372851 13 49 C14.31270914 51.90221328 15.71898982 53.96712292 17.9765625 56.20703125 C18.56566406 56.79419922 19.15476563 57.38136719 19.76171875 57.98632812 C20.37660156 58.58896484 20.99148437 59.19160156 21.625 59.8125 C22.21667969 60.40353516 22.80835938 60.99457031 23.41796875 61.60351562 C26.49134163 64.64701771 29.62571729 67.57465502 32.90234375 70.3984375 C37.45189433 74.33516671 41.69599174 78.54880425 45.9375 82.8125 C46.70384766 83.57498047 47.47019531 84.33746094 48.25976562 85.12304688 C48.98744141 85.85201172 49.71511719 86.58097656 50.46484375 87.33203125 C51.120896 87.98921143 51.77694824 88.6463916 52.45288086 89.32348633 C54.57365954 91.621638 54.97553431 92.71864454 55.25 95.875 C54.96621485 99.42231438 54.67676107 100.66862746 52 103 C48.25058061 104.04150539 46.06180243 104.53662677 42.5324707 102.75292969 C40.01519796 101.01051975 37.99110632 99.2043803 35.85546875 97.015625 C34.71561523 95.85933594 34.71561523 95.85933594 33.55273438 94.6796875 C32.77220703 93.87789063 31.99167969 93.07609375 31.1875 92.25 C26.26929595 87.22048705 21.33485344 82.33963846 15.98950195 77.76464844 C12.50186819 74.67118705 9.25600928 71.33394568 6 68 C5.98018066 68.8878418 5.96036133 69.77568359 5.93994141 70.69042969 C5.86171768 73.99311334 5.77502115 77.29535064 5.68261719 80.59765625 C5.64439976 82.02530398 5.60953428 83.45304563 5.578125 84.88085938 C5.53231599 86.93653868 5.4743502 88.99157554 5.4140625 91.046875 C5.3826416 92.28276367 5.3512207 93.51865234 5.31884766 94.79199219 C5.02066202 97.79211417 4.63332157 99.50754095 3 102 C0.30412197 104.09679403 -1.092944 103.99510821 -4.5625 103.8125 C-8.03244864 102.99233032 -8.91304129 102.7052685 -11 100 C-11.30690064 96.90431435 -11.43023184 94.00838646 -11.41992188 90.91040039 C-11.42839142 89.98004471 -11.43686096 89.04968903 -11.44558716 88.09114075 C-11.46902308 85.00984093 -11.46997774 81.92903852 -11.46875 78.84765625 C-11.47584759 76.70918069 -11.48354599 74.57070705 -11.49182129 72.43223572 C-11.50528127 67.94736438 -11.50682803 63.46266911 -11.50097656 58.9777832 C-11.49507913 53.22606186 -11.52566728 47.47518423 -11.56609344 41.72362614 C-11.59192339 37.30642635 -11.59485212 32.88943097 -11.59120178 28.47216606 C-11.59289744 26.35143348 -11.6025826 24.2306919 -11.62034607 22.11003304 C-11.64244252 19.14577651 -11.6328811 16.18324397 -11.61523438 13.21899414 C-11.62849762 12.34041748 -11.64176086 11.46184082 -11.65542603 10.55664062 C-11.57318614 4.62151434 -11.57318614 4.62151434 -8.6529541 1.45506287 C-5.40927834 -0.32399247 -3.6454555 -0.62050306 0 0 Z " fill="#000000" transform="translate(205,273)"/>
<path d="M0 0 C1.92622876 1.39447063 3.53195404 2.61206927 5.0234375 4.46484375 C5.41625627 7.55829153 5.65351855 9.5105958 5.0234375 12.46484375 C2.60328987 15.31207626 0.95480078 16.24824764 -2.6640625 17.08984375 C-6.95793329 16.27967945 -9.86918278 14.25108107 -13.53125 11.93359375 C-19.27534643 8.48346554 -25.40920806 7.69903917 -31.9765625 8.46484375 C-35.79898214 9.54220527 -39.77241489 11.03616968 -41.9765625 14.46484375 C-42.74838158 17.73023218 -43.34805504 20.2745715 -42.33398438 23.52368164 C-40.44203003 26.22924441 -38.49387733 26.86046283 -35.4453125 28.0859375 C-33.76308594 28.77719727 -33.76308594 28.77719727 -32.046875 29.48242188 C-30.86867187 29.95099609 -29.69046875 30.41957031 -28.4765625 30.90234375 C1.51587425 43.0509656 1.51587425 43.0509656 7.17578125 55.65625 C9.49953876 63.35570461 9.01965719 71.33569707 5.28125 78.47265625 C-0.45387864 87.55624509 -7.68489094 92.44438229 -18.125 94.9609375 C-31.71963607 97.3632773 -44.300873 93.42308295 -55.9765625 86.46484375 C-59.96885516 83.64306621 -63.13605925 81.0926476 -64.9765625 76.46484375 C-64.84741837 72.784236 -64.75515641 70.39316725 -62.3515625 67.52734375 C-58.73526274 65.90952544 -56.94265359 65.76118243 -52.9765625 66.46484375 C-50.7578125 68.1171875 -50.7578125 68.1171875 -48.3515625 70.21484375 C-41.81812433 75.84058287 -34.64185991 77.92948175 -26.1640625 78.90234375 C-19.23920635 77.9518733 -14.58330114 75.90917123 -9.9765625 70.46484375 C-8.42631786 67.36435447 -8.68664235 64.88590157 -8.9765625 61.46484375 C-13.91731348 52.03250096 -29.6654786 48.75417152 -38.96289062 45.30273438 C-46.13404749 42.53453704 -52.03318131 39.70633151 -56.5 33.26953125 C-56.92152344 32.31433594 -56.92152344 32.31433594 -57.3515625 31.33984375 C-57.64804688 30.69789063 -57.94453125 30.0559375 -58.25 29.39453125 C-61.15777985 21.6717181 -60.69629748 14.41037741 -57.36328125 6.890625 C-53.15935963 -0.46327732 -46.97608981 -4.99311615 -38.9765625 -7.53515625 C-25.02156376 -10.90438922 -11.95017417 -7.48374695 0 0 Z " fill="#000000" transform="translate(172.9765625,281.53515625)"/>
<path d="M0 0 C0.87173859 -0.00570007 1.74347717 -0.01140015 2.64163208 -0.01727295 C4.48584786 -0.02671683 6.33008047 -0.0332545 8.17431641 -0.03710938 C10.99020936 -0.04681433 13.80537209 -0.07784286 16.62109375 -0.109375 C18.41405817 -0.11590543 20.20702781 -0.12115575 22 -0.125 C23.25960037 -0.1435202 23.25960037 -0.1435202 24.54464722 -0.16241455 C29.68337986 -0.14291222 33.31699825 0.38731075 37.1328125 4.203125 C37.72336223 11.40783171 37.72336223 11.40783171 35.56811523 14.31030273 C32.20337538 16.92552359 29.96857549 16.66083552 25.7421875 16.59375 C24.68526703 16.58526031 24.68526703 16.58526031 23.60699463 16.57659912 C21.36489822 16.55427578 19.12442262 16.50409254 16.8828125 16.453125 C15.35939815 16.43305452 13.83595864 16.4148047 12.3125 16.3984375 C8.58481664 16.35783093 4.86062008 16.2795493 1.1328125 16.203125 C1.1328125 25.443125 1.1328125 34.683125 1.1328125 44.203125 C3.17984375 44.16832031 5.226875 44.13351562 7.3359375 44.09765625 C9.32502143 44.07679173 11.3141081 44.05603523 13.30322266 44.03833008 C14.68252468 44.02327078 16.06177903 44.00281887 17.44091797 43.97680664 C19.42654653 43.94030085 21.41252868 43.92497647 23.3984375 43.91015625 C24.59243164 43.8944458 25.78642578 43.87873535 27.01660156 43.86254883 C30.41674628 44.23415662 31.77820477 44.75809076 34.1328125 47.203125 C35.00562399 50.63202726 35.46204079 53.09572077 34.4453125 56.515625 C32.80203299 58.62841295 31.6340943 59.22771964 29.1328125 60.203125 C26.10839844 60.43017578 26.10839844 60.43017578 22.6171875 60.3984375 C20.74160156 60.38876953 20.74160156 60.38876953 18.828125 60.37890625 C16.87519531 60.35376953 16.87519531 60.35376953 14.8828125 60.328125 C13.56539063 60.31910156 12.24796875 60.31007813 10.890625 60.30078125 C7.63794334 60.27721109 4.38535506 60.24134025 1.1328125 60.203125 C1.1328125 69.113125 1.1328125 78.023125 1.1328125 87.203125 C3.16824219 87.17992187 5.20367187 87.15671875 7.30078125 87.1328125 C9.28327953 87.11890023 11.26577904 87.10506098 13.24829102 87.09326172 C14.62071833 87.08323574 15.99312445 87.06961144 17.36547852 87.05224609 C19.34381777 87.02784873 21.32231617 87.01768016 23.30078125 87.0078125 C24.48953857 86.99733887 25.6782959 86.98686523 26.90307617 86.97607422 C31.24249743 87.28113596 34.04291085 88.11322335 37.1328125 91.203125 C37.80972957 98.19793476 37.80972957 98.19793476 35.72119141 101.29931641 C31.77097785 104.2047838 28.04287511 103.77606902 23.2578125 103.734375 C22.29633301 103.7382019 21.33485352 103.74202881 20.34423828 103.74597168 C18.3134659 103.74869102 16.28265851 103.74132829 14.25195312 103.72460938 C11.1437368 103.70320025 8.03783194 103.72441046 4.9296875 103.75 C2.95572407 103.74735673 0.98176207 103.74223176 -0.9921875 103.734375 C-2.38606689 103.74652039 -2.38606689 103.74652039 -3.80810547 103.75891113 C-4.67580566 103.74630249 -5.54350586 103.73369385 -6.4375 103.72070312 C-7.19820801 103.71752075 -7.95891602 103.71433838 -8.74267578 103.71105957 C-11.93720112 102.94730297 -12.99157927 101.90922853 -14.8671875 99.203125 C-15.45038014 96.19629994 -15.40330653 93.23845271 -15.36889648 90.18359375 C-15.37700096 88.8171019 -15.37700096 88.8171019 -15.38526917 87.42300415 C-15.3977758 84.41188055 -15.3812524 81.40170947 -15.36328125 78.390625 C-15.36343619 76.29842071 -15.36492438 74.20621614 -15.36769104 72.11401367 C-15.3690759 67.72920036 -15.35650216 63.34471379 -15.33374023 58.95996094 C-15.30535555 53.33735171 -15.30809186 47.71528551 -15.32083035 42.09263611 C-15.32778287 37.77237301 -15.32000308 33.45223558 -15.30757332 29.13198853 C-15.30305468 27.05873089 -15.30272561 24.98545979 -15.30663872 22.91220093 C-15.30954672 20.01540436 -15.29306341 17.11935806 -15.27124023 14.22265625 C-15.27574188 13.36435211 -15.28024353 12.50604797 -15.28488159 11.62173462 C-15.24112914 8.12914562 -15.19568479 5.81732212 -13.5294342 2.7019043 C-9.73089439 -0.72308239 -4.80755395 0.02421421 0 0 Z " fill="#000000" transform="translate(458.8671875,272.796875)"/>
<path d="M0 0 C1.20490082 -0.01283524 2.40980164 -0.02567047 3.6512146 -0.03889465 C4.95434601 -0.04628159 6.25747742 -0.05366852 7.60009766 -0.0612793 C8.26409199 -0.06535482 8.92808632 -0.06943035 9.61220169 -0.07362938 C13.12574195 -0.09446583 16.63924341 -0.1087788 20.15283203 -0.11816406 C23.7767323 -0.12923266 27.40001923 -0.16364352 31.02370262 -0.20333576 C33.81530887 -0.22950807 36.60676894 -0.23785629 39.39848709 -0.24144554 C41.38215126 -0.24866844 43.36571546 -0.27510199 45.34921265 -0.30183411 C46.56041779 -0.29890854 47.77162292 -0.29598297 49.01953125 -0.29296875 C50.61479141 -0.30176811 50.61479141 -0.30176811 52.24227905 -0.31074524 C55.85800153 0.29803311 57.53518308 1.6469163 60.13916016 4.17700195 C60.76806641 6.17700195 60.76806641 6.17700195 60.70166016 8.17700195 C60.70294922 8.83700195 60.70423828 9.49700195 60.70556641 10.17700195 C59.88286767 13.08197955 58.45831139 14.27593815 56.13916016 16.17700195 C53.48193359 16.63110352 53.48193359 16.63110352 50.49853516 16.56762695 C48.89365234 16.54829102 48.89365234 16.54829102 47.25634766 16.52856445 C46.14517578 16.49504883 45.03400391 16.4615332 43.88916016 16.42700195 C42.76251953 16.40895508 41.63587891 16.3909082 40.47509766 16.37231445 C37.6955912 16.32520417 34.91780676 16.25943556 32.13916016 16.17700195 C32.1480426 17.39587097 32.15692505 18.61473999 32.16607666 19.87054443 C32.24710449 31.34783968 32.30709776 42.82507703 32.34640884 54.30259323 C32.3672984 60.20355891 32.39564147 66.104294 32.44091797 72.00512695 C32.48432623 77.69799318 32.50828695 83.39063738 32.51866913 89.08365631 C32.52606948 91.25743354 32.54052034 93.43119839 32.56208038 95.60488129 C32.59104714 98.64579182 32.59511891 101.68578071 32.59326172 104.72680664 C32.61483337 106.07979355 32.61483337 106.07979355 32.63684082 107.46011353 C32.59641305 113.5631526 32.59641305 113.5631526 30.23577881 116.73223877 C27.98454545 118.28354571 26.84880196 118.74479422 24.13916016 118.73950195 C23.14916016 118.77237305 23.14916016 118.77237305 22.13916016 118.8059082 C18.88476501 117.78255348 17.92872978 116.04715659 16.13916016 113.17700195 C15.57086986 110.01666526 15.63324099 106.90846181 15.68505859 103.70507812 C15.68447449 102.75825165 15.68389038 101.81142517 15.68328857 100.83590698 C15.68607014 97.7135523 15.71716616 94.59215815 15.74853516 91.4699707 C15.75599727 89.30235821 15.76169034 87.13473896 15.76568604 84.96711731 C15.78094457 79.26727613 15.82022872 73.56784389 15.86450195 67.86816406 C15.90544965 62.04994234 15.92369601 56.23165442 15.94384766 50.41333008 C15.98672239 39.00104122 16.05497675 27.58905562 16.13916016 16.17700195 C15.43307617 16.20318604 14.72699219 16.22937012 13.99951172 16.25634766 C10.79628808 16.36036552 7.59341956 16.42534344 4.38916016 16.48950195 C3.27798828 16.53139648 2.16681641 16.57329102 1.02197266 16.61645508 C-7.19835573 16.7402552 -7.19835573 16.7402552 -10.59912109 13.84887695 C-12.12134665 10.62534049 -12.3858263 8.70191105 -11.86083984 5.17700195 C-8.9618458 0.06925054 -5.50927904 0.05107232 0 0 Z " fill="#000000" transform="translate(435.86083984375,393.822998046875)"/>
<path d="M0 0 C1.08485184 -0.01606293 2.16970367 -0.03212585 3.28742981 -0.04867554 C8.25102165 -0.09305494 13.21447892 -0.13418717 18.17822266 -0.15722656 C20.79810463 -0.17379473 23.41794125 -0.2010956 26.03759766 -0.23925781 C29.81005362 -0.29394832 33.58144934 -0.31588962 37.35424805 -0.33056641 C39.11071404 -0.36457047 39.11071404 -0.36457047 40.90266418 -0.39926147 C49.01484259 -0.37813397 49.01484259 -0.37813397 53.04248047 2.53808594 C54.8034668 5.19287109 54.8034668 5.19287109 55.4284668 8.19287109 C54.56175251 12.35309965 53.18559223 13.62726895 49.8034668 16.19287109 C46.50823037 16.79567615 43.32666199 16.66705654 39.9909668 16.50537109 C39.10731445 16.4828125 38.22366211 16.46025391 37.31323242 16.43701172 C35.1425777 16.37834537 32.97279989 16.28867089 30.8034668 16.19287109 C30.81012863 17.19654221 30.81679047 18.20021332 30.82365417 19.23429871 C30.88448204 28.69518727 30.9294475 38.15603614 30.95890331 47.61707592 C30.97455596 52.48104696 30.995787 57.34486008 31.02978516 62.20874023 C31.06239278 66.90309005 31.08032283 71.597288 31.08809853 76.29174232 C31.09363951 78.08230289 31.1044597 79.87285518 31.12065697 81.66335106 C31.14245001 84.17231552 31.14543296 86.6806533 31.14404297 89.18969727 C31.1548288 89.92913071 31.16561462 90.66856415 31.17672729 91.43040466 C31.15014885 95.86715511 30.55769496 98.68060404 27.8034668 102.19287109 C24.8034668 104.19287109 24.8034668 104.19287109 21.3034668 104.00537109 C16.62187195 102.91857229 16.62187195 102.91857229 14.8034668 100.19287109 C14.52292941 97.43252705 14.4244744 94.90054599 14.46289062 92.14135742 C14.46223351 90.91175041 14.46223351 90.91175041 14.46156311 89.65730286 C14.46365408 86.94626087 14.48699943 84.23583637 14.51049805 81.52490234 C14.51609291 79.64589272 14.52036352 77.76687872 14.52336121 75.88786316 C14.53481862 70.9410088 14.56429354 65.99441846 14.59747314 61.04766846 C14.62815469 56.00040254 14.64186245 50.953094 14.65698242 45.90576172 C14.68916236 36.00134881 14.74036957 26.0971319 14.8034668 16.19287109 C14.21855469 16.21381836 13.63364258 16.23476563 13.03100586 16.25634766 C10.37200214 16.33967225 7.71327325 16.39158006 5.0534668 16.44287109 C3.67288086 16.49314453 3.67288086 16.49314453 2.2644043 16.54443359 C-4.57333986 16.64353134 -4.57333986 16.64353134 -7.77856445 14.32568359 C-9.48082493 11.76525874 -10.1229808 10.28207201 -10.1965332 7.19287109 C-7.75311158 1.14249374 -6.33418886 0.08507185 0 0 Z " fill="#000000" transform="translate(288.196533203125,272.80712890625)"/>
<path d="M0 0 C6.63851822 6.3837064 10.39331238 12.95412204 11.05859375 22.25390625 C10.87258752 30.97139826 8.31700477 38.87441962 2 45 C-6.72583828 52.00569095 -14.86868611 54.07132364 -26 53 C-35.14861011 50.60158059 -40.47981455 46.16207115 -45.66796875 38.4140625 C-49.81807801 30.89275011 -50.29310859 22.52087681 -48.34765625 14.21484375 C-45.55345203 6.45583032 -40.4359188 -0.51990951 -32.92578125 -4.25 C-21.97982374 -8.51292869 -9.13321189 -7.9489053 0 0 Z M-28 12 C-31.49809728 15.58779208 -32.84009874 18.30504666 -33.3125 23.3125 C-32.83082184 28.99630225 -30.46510409 31.76280099 -26.1875 35.375 C-22.37985365 37.31615304 -20.22575274 37.52821909 -16 37 C-10.8365438 35.1776037 -8.54997091 32.81661172 -6 28 C-4.77193811 24.15207275 -4.90012721 22.3348676 -6.0625 18.4375 C-8.78562696 13.60614572 -11.49238423 10.87221418 -16.875 9 C-21.07386768 9 -24.33621068 9.95327761 -28 12 Z " fill="#000000" transform="translate(101,172)"/>
</svg>
