<?xml version="1.0" encoding="UTF-8"?>
<svg version="1.1" xmlns="http://www.w3.org/2000/svg" width="32" height="32">
<path d="M0 0 C2.64 0 5.28 0 8 0 C8.33 3.3 8.66 6.6 9 10 C12.465 5.05 12.465 5.05 16 0 C17.32 0.33 18.64 0.66 20 1 C19.48964169 5.3890815 18.47785723 8.33708062 16 12 C17.134375 11.979375 18.26875 11.95875 19.4375 11.9375 C23 12 23 12 24 13 C24 15 24 17 24 19 C24.185625 19.928125 24.37125 20.85625 24.5625 21.8125 C24.706875 22.534375 24.85125 23.25625 25 24 C24 25 24 25 21.93359375 25.09765625 C21.10988281 25.08605469 20.28617188 25.07445313 19.4375 25.0625 C18.61121094 25.05347656 17.78492187 25.04445313 16.93359375 25.03515625 C15.97646484 25.01775391 15.97646484 25.01775391 15 25 C14.67 23.35 14.34 21.7 14 20 C14.66 19.67 15.32 19.34 16 19 C15.01 18.34 14.02 17.68 13 17 C11.02 19.97 9.04 22.94 7 26 C5.68 25.67 4.36 25.34 3 25 C2 22 2 22 2.77734375 20.17578125 C3.8515625 18.45052083 4.92578125 16.72526042 6 15 C4.68 14.67 3.36 14.34 2 14 C2 11.36 2 8.72 2 6 C1.01 5.67 0.02 5.34 -1 5 C-0.67 3.35 -0.34 1.7 0 0 Z M1 2 C1 2.66 1 3.32 1 4 C1.66 4 2.32 4 3 4 C3 6.64 3 9.28 3 12 C3.99 12 4.98 12 6 12 C6 8.7 6 5.4 6 2 C4.35 2 2.7 2 1 2 Z M17 2 C13.66352501 6.94971565 10.37026907 11.92749195 7.125 16.9375 C6.52945312 17.85402344 5.93390625 18.77054688 5.3203125 19.71484375 C3.8332408 21.84876173 3.8332408 21.84876173 4 24 C8.76667642 22.41110786 10.23781332 18.29484438 12.75 14.125 C13.26949219 13.29613281 13.78898437 12.46726562 14.32421875 11.61328125 C14.81019531 10.81535156 15.29617187 10.01742188 15.796875 9.1953125 C16.24385742 8.46328613 16.69083984 7.73125977 17.15136719 6.97705078 C18.32128141 4.85586604 18.32128141 4.85586604 17 2 Z M16 14 C16 14.66 16 15.32 16 16 C16.99 16 17.98 16 19 16 C18.625 17.9375 18.625 17.9375 18 20 C17.01 20.495 17.01 20.495 16 21 C16 21.99 16 22.98 16 24 C18.31 24 20.62 24 23 24 C23 23.34 23 22.68 23 22 C22.01 22 21.02 22 20 22 C20.66 21.01 21.32 20.02 22 19 C22.16713569 16.37468476 22.16713569 16.37468476 22 14 C20.02 14 18.04 14 16 14 Z " fill="#308FEA" transform="translate(4,3)"/>
<path d="M0 0 C1.77201559 1.77201559 1 4.60574059 1 7 C1.185625 7.928125 1.37125 8.85625 1.5625 9.8125 C1.7790625 10.8953125 1.7790625 10.8953125 2 12 C1 13 1 13 -1.06640625 13.09765625 C-1.89011719 13.08605469 -2.71382812 13.07445312 -3.5625 13.0625 C-4.38878906 13.05347656 -5.21507812 13.04445313 -6.06640625 13.03515625 C-6.70449219 13.02355469 -7.34257812 13.01195312 -8 13 C-8.33 11.35 -8.66 9.7 -9 8 C-8.34 7.67 -7.68 7.34 -7 7 C-7.66 6.34 -8.32 5.68 -9 5 C-9 3.68 -9 2.36 -9 1 C-6.01787087 -0.49106457 -3.28390342 -0.11941467 0 0 Z M-7 2 C-7 2.66 -7 3.32 -7 4 C-6.01 4 -5.02 4 -4 4 C-4.375 5.9375 -4.375 5.9375 -5 8 C-5.99 8.495 -5.99 8.495 -7 9 C-7 9.99 -7 10.98 -7 12 C-4.69 12 -2.38 12 0 12 C0 11.34 0 10.68 0 10 C-0.99 10 -1.98 10 -3 10 C-2.34 9.01 -1.68 8.02 -1 7 C-0.83286431 4.37468476 -0.83286431 4.37468476 -1 2 C-2.98 2 -4.96 2 -7 2 Z " fill="#1765D8" transform="translate(27,15)"/>
<path d="M0 0 C2.64 0 5.28 0 8 0 C8.08082094 1.95766281 8.13910778 3.91626728 8.1875 5.875 C8.22230469 6.96554688 8.25710938 8.05609375 8.29296875 9.1796875 C8.19628906 10.11039063 8.09960938 11.04109375 8 12 C5 14 5 14 2 14 C2 11.36 2 8.72 2 6 C1.01 5.67 0.02 5.34 -1 5 C-0.67 3.35 -0.34 1.7 0 0 Z M1 2 C1 2.66 1 3.32 1 4 C1.66 4 2.32 4 3 4 C3 6.64 3 9.28 3 12 C3.99 12 4.98 12 6 12 C6 8.7 6 5.4 6 2 C4.35 2 2.7 2 1 2 Z " fill="#3D9CF0" transform="translate(4,3)"/>
<path d="M0 0 C0.98391351 2.58318926 1.13371176 3.67110509 0.07543945 6.27416992 C-0.64832886 7.49003784 -0.64832886 7.49003784 -1.38671875 8.73046875 C-1.91330078 9.61541016 -2.43988281 10.50035156 -2.98242188 11.41210938 C-3.54509766 12.32798828 -4.10777344 13.24386719 -4.6875 14.1875 C-5.23083984 15.11498047 -5.77417969 16.04246094 -6.33398438 16.99804688 C-6.86701172 17.87912109 -7.40003906 18.76019531 -7.94921875 19.66796875 C-8.43737061 20.47516357 -8.92552246 21.2823584 -9.4284668 22.11401367 C-11.22727821 24.27275504 -12.25769723 24.65254051 -15 25 C-15 24.01 -15 23.02 -15 22 C-14.34 22 -13.68 22 -13 22 C-11.70663789 20.35402362 -11.70663789 20.35402362 -10.46875 18.203125 C-9.74751953 17.01203125 -9.74751953 17.01203125 -9.01171875 15.796875 C-8.26341797 14.53617188 -8.26341797 14.53617188 -7.5 13.25 C-7.00113281 12.425 -6.50226562 11.6 -5.98828125 10.75 C-3.86351019 7.21820896 -1.80474037 3.70788306 0 0 Z " fill="#287EE3" transform="translate(23,4)"/>
<path d="M0 0 C0.33 0 0.66 0 1 0 C0.979375 0.886875 0.95875 1.77375 0.9375 2.6875 C0.90072617 5.93648941 0.90072617 5.93648941 1.5625 8.8125 C1.7790625 9.8953125 1.7790625 9.8953125 2 11 C1 12 1 12 -2.5625 12.0625 C-3.696875 12.041875 -4.83125 12.02125 -6 12 C-6 11.67 -6 11.34 -6 11 C-4.02 11 -2.04 11 0 11 C0 10.34 0 9.68 0 9 C-0.99 9 -1.98 9 -3 9 C-2.01 6.03 -1.02 3.06 0 0 Z " fill="#0850CC" transform="translate(27,16)"/>
<path d="M0 0 C0.66 0 1.32 0 2 0 C0.84414715 3.91211733 -0.35534962 6.8745041 -3 10 C-4.32 9.67 -5.64 9.34 -7 9 C-6.67 8.34 -6.34 7.68 -6 7 C-5.34 7 -4.68 7 -4 7 C-2.68 4.69 -1.36 2.38 0 0 Z " fill="#2072DD" transform="translate(14,19)"/>
<path d="M0 0 C2.64 0 5.28 0 8 0 C6 2 6 2 3.375 2.125 C2.59125 2.08375 1.8075 2.0425 1 2 C1 2.66 1 3.32 1 4 C1.66 4 2.32 4 3 4 C2.67 4.99 2.34 5.98 2 7 C1.01 6.34 0.02 5.68 -1 5 C-0.67 3.35 -0.34 1.7 0 0 Z " fill="#50B2FB" transform="translate(4,3)"/>
<path d="M0 0 C0 4.03223106 -1.64129026 5.80880447 -4 9 C-4.99 9.495 -4.99 9.495 -6 10 C-4.79157144 5.56909529 -3.48331435 3.01887244 0 0 Z " fill="#2980E6" transform="translate(12,17)"/>
</svg>
